<?xml version="1.0" encoding="UTF-8"?>
<svg width="967px" height="929px" viewBox="0 0 967 929" version="1.1" xmlns="http://www.w3.org/2000/svg" xmlns:xlink="http://www.w3.org/1999/xlink">
    <title>holacabo</title>
    <g id="Page-1" stroke="none" stroke-width="1" fill="none" fill-rule="evenodd">
        <g id="holacabo" transform="translate(0.455224, 0.384428)">
            <circle id="Oval" fill="#FFFFFF" cx="444" cy="491" r="437"></circle>
            <path d="M483.109368,39.8755281 C488.498496,40.3687946 485.623357,46.5048184 483.159073,56.763618 L483.795311,56.8200413 C470.678727,55.6194815 457.46083,55.0154036 444.168307,55.0154036 C207.145196,55.0154036 15,247.160599 15,484.183711 C15,721.206822 207.145196,913.352018 444.168307,913.352018 C681.191418,913.352018 873.336614,721.206822 873.336614,484.183711 C873.336614,468.42759 872.487873,452.777253 870.803368,437.277465 C879.283993,435.205426 885.545788,434.09531 885.713425,435.637166 C887.457816,451.681359 888.336614,467.879272 888.336614,484.183711 C888.336614,729.491093 689.47569,928.352018 444.168307,928.352018 C198.860925,928.352018 5.68434189e-14,729.491093 5.68434189e-14,484.183711 C5.68434189e-14,238.876328 198.860925,40.0154036 444.168307,40.0154036 C457.917447,40.0154036 469.538387,38.6333773 483.109368,39.8755281 Z" id="Oval" fill="#333333" fill-rule="nonzero"></path>
            <path d="M713.789884,447.240537 C719.072681,447.240537 723.364903,451.557147 723.364903,456.858047 L723.359586,527.663155 C725.31388,525.945987 731.736398,516.708335 728.344092,470.695354 L728.317453,470.304869 L728.503844,469.957177 C728.754146,469.486531 731.038769,465.351689 734.702644,465.228666 C737.035255,465.185805 739.202633,466.715646 741.14643,469.876933 L741.316843,470.149735 L741.349426,470.469671 C741.364695,470.637417 741.402877,471.069234 741.452802,471.729403 L741.49821,472.350353 C742.222619,482.590985 744.392276,529.698504 723.466987,535.198962 L723.365802,534.808477 L723.365802,565.458692 L704.215492,565.458692 L704.215492,540.885663 C682.631005,536.702291 683.834583,507.50222 684.649374,488.047829 C684.819787,483.929091 684.979553,480.045744 684.904994,476.980723 L684.894346,476.590238 L685.091384,476.253254 L685.12431,476.198395 C685.450374,475.664467 687.947982,471.792106 691.833324,471.583489 C694.437505,471.433681 696.972429,472.974203 699.310221,476.13015 L699.581818,476.493877 L699.587135,518.511088 C699.587135,518.56997 699.83212,525.983781 704.214865,530.29505 L704.214865,456.858047 C704.214865,451.557147 708.512403,447.240537 713.789884,447.240537 Z" id="Fill-1" fill="#333333" fill-rule="nonzero"></path>
            <path d="M496.933804,391.086914 C504.749277,391.086914 511.739656,394.509101 517.515986,399.69119 C523.292316,404.87328 528.195983,411.668718 532.662697,419.638092 C541.595006,435.575088 549.022338,456.157768 557.130078,476.347467 C565.237819,496.537166 573.878702,516.337639 584.315367,530.711473 C594.752032,545.085307 606.305935,553.787203 621.210309,553.787203 L800.639428,553.787203 C803.940437,553.787203 806.950268,556.720541 806.950268,560.044858 C806.950268,563.369175 803.940437,566.351448 800.639428,566.303687 L621.210309,566.303687 C462.241223,566.303687 427.527766,565.032583 363.532578,565.135444 L363.63219,565.458692 C357.494256,546.248242 349.12047,536.643016 338.510832,536.643016 C327.90397,536.643016 319.777949,546.243215 314.13277,565.443612 C295.732391,565.628806 274.335867,565.906338 248.383492,566.303687 L74.3976436,566.303687 C71.0966349,566.303687 68.086804,563.369175 68.086804,560.044858 C68.086804,556.720541 71.0966349,553.738268 74.3976436,553.787203 L248.383492,553.787203 C263.189687,553.787203 272.801163,548.458434 280.618098,540.097956 C288.435034,531.737478 293.822381,519.858196 298.482717,507.635743 C303.143052,495.413291 307.172315,482.94679 312.075982,472.828162 C314.503209,467.743817 317.221738,463.09951 321.008291,459.530644 C324.794845,455.961778 329.79495,453.664093 335.377037,453.664093 C345.377371,453.664093 353.096253,459.33503 357.901991,466.179403 C362.707728,473.023776 365.620624,481.138954 368.776106,488.863403 C371.931588,496.587853 375.329656,503.578906 379.650222,508.418576 C383.970787,513.258247 388.873833,516.240645 397.51484,516.240645 C404.602402,516.240645 411.156573,510.423028 418.097366,499.422571 C425.038158,488.422114 431.447051,473.268075 438.292152,457.573876 C445.137252,441.879676 452.22469,425.895122 461.206088,413.379811 C470.084251,401.008355 481.80764,391.312048 496.424268,391.090779 L496.933804,391.086914 Z" id="Path-2" fill="#333333" fill-rule="nonzero"></path>
        </g>
    </g>
</svg>