<?xml version="1.0" encoding="UTF-8"?>
<svg width="512pt" height="512pt" version="1.1" viewBox="0 0 512 512" xmlns="http://www.w3.org/2000/svg">
 <path d="m365.23 95c-15.551 0-27.309 12.809-27.309 28.359v65.957c0 19.129 0.42969 24.863-6.1797 31.902-6.168 6.5742-24.684 6.7383-39.898 5.8203l-0.003906-174.88c0-15.043-12.668-26.055-26.215-26.055-16.664 0-30.105 11.02-30.105 26.238v221.79c-17.066 0.41797-25.766-4.1133-30.402-21.98-0.13281-0.50781 0-84.801 0-84.801-1.7031-15.359-14.281-23.301-28.652-23.301-14.379 0-26.23 9.5391-27.93 24.898l-0.054687 86.398c-0.03125 42.613 13.906 57.473 33.148 68.98 15.27 9.1367 48.77 12.551 53.891 12.551v149.51h56.32v-205.2c67.359 0.16406 102.4-26.477 102.4-82.922v-74.836-0.28516c0-15.547-13.469-28.152-29.008-28.152z" fill="#fff"/>
</svg>
