<?xml version="1.0" encoding="UTF-8"?>
<svg width="1025px" height="1024px" viewBox="0 0 1025 1024" version="1.1" xmlns="http://www.w3.org/2000/svg" xmlns:xlink="http://www.w3.org/1999/xlink">
    <title>Hola Cabo Logo Final Copy</title>
    <g id="Hola-Cabo" stroke="none" stroke-width="1" fill="none" fill-rule="evenodd">
        <g id="Group-20" transform="translate(57.455224, 26.384428)">
            <path d="M483.109368,39.8755279 C488.498496,40.3687944 485.623357,46.5048182 483.159073,56.7636178 L483.795311,56.8200411 C470.678727,55.6194813 457.46083,55.0154034 444.168307,55.0154034 C207.145196,55.0154034 15,247.160599 15,484.183711 C15,721.206822 207.145196,913.352018 444.168307,913.352018 C681.191418,913.352018 873.336614,721.206822 873.336614,484.183711 C873.336614,468.42759 872.487873,452.777253 870.803368,437.277465 C879.283993,435.205426 885.545788,434.09531 885.713425,435.637166 C887.457816,451.681359 888.336614,467.879272 888.336614,484.183711 C888.336614,729.491093 689.47569,928.352018 444.168307,928.352018 C198.860925,928.352018 0,729.491093 0,484.183711 C0,238.876328 198.860925,40.0154034 444.168307,40.0154034 C457.917447,40.0154034 469.538387,38.6333771 483.109368,39.8755279 Z" id="Oval" fill="#000000" fill-rule="nonzero"></path>
            <path d="M467.383162,55.8882692 L474.422428,55.1041964 L477.821325,85.668045 C482.575063,77.6435638 488.930573,73.1882162 496.888043,72.3018686 C500.968797,71.8473313 504.764158,72.5419374 508.274238,74.3857078 C511.784319,76.2294781 514.417715,78.8584677 516.174506,82.2727554 C517.931298,85.6870432 519.194885,90.8580297 519.965305,97.78587 L523.058301,125.598972 L516.019036,126.383045 L513.040271,99.6142014 C512.461021,94.5816769 511.901699,91.0942969 511.36229,89.1519666 C510.788079,87.0843246 509.817138,85.1640451 508.449436,83.3910706 C507.081735,81.6180961 505.37397,80.3471604 503.326091,79.5782256 C501.278213,78.8092907 498.877055,78.5782331 496.122546,78.8850457 C493.368036,79.1918583 490.804343,80.1306396 488.431387,81.7014176 C486.058432,83.2721956 484.116223,85.3106772 482.604703,87.8169234 C481.093183,90.3231697 480.167337,92.8329055 479.827137,95.3462062 L479.783443,95.7127668 C479.510665,98.3260258 479.766773,103.162062 480.551772,110.221003 L482.761055,130.087505 L475.72179,130.871578 L467.383162,55.8882692 Z M538.771094,101.914476 C538.830267,93.9412581 541.634331,87.1430597 547.183368,81.5196766 C552.732406,75.8962934 559.457541,73.1081963 567.358975,73.1553017 C575.260409,73.202407 581.943567,76.0704393 587.40865,81.7594845 C592.873732,87.4485296 595.576899,94.2454855 595.518231,102.150556 C595.459563,110.055626 592.690084,116.802919 587.20971,122.392636 C581.729336,127.982354 574.987225,130.753313 566.983175,130.705595 C558.979125,130.657878 552.261635,127.806679 546.830505,122.151911 C541.399376,116.497143 538.712932,109.751399 538.771094,101.914476 Z M588.174676,102.28711 C588.199613,96.2547267 586.141836,91.0085823 582.001285,86.5485191 C577.860734,82.0884559 572.933452,79.8319398 567.21929,79.7789031 C561.505128,79.7258663 556.576474,81.8909033 552.433181,86.2740789 C548.289887,90.6572546 546.205662,95.8992301 546.180443,102.000163 C546.155223,108.101096 548.128684,113.295044 552.100885,117.582163 C556.073087,121.869283 561.017629,124.04027 566.93466,124.09519 C572.851692,124.150109 577.86459,122.054406 581.973505,117.808016 C586.08242,113.561626 588.149457,108.388042 588.174676,102.28711 Z M628.485137,61.7337862 L635.125246,63.533188 L615.905135,136.358996 L609.265025,134.559594 L628.485137,61.7337862 Z M707.247852,108.89648 L688.91159,159.858168 L682.455924,157.553682 L685.598297,148.820135 C677.243532,153.707552 669.308474,154.80982 661.792885,152.126972 C654.277295,149.444124 648.895224,144.508565 645.646508,137.320147 C642.397792,130.13173 642.102911,122.84265 644.761855,115.452688 C647.420799,108.062726 652.30137,102.657233 659.403716,99.2360449 C666.506062,95.8148571 673.68645,95.3998328 680.945096,97.9909595 C689.295751,100.971902 694.794872,106.941982 697.442624,115.901379 L700.792185,106.591994 L707.247852,108.89648 Z M691.456114,131.724353 C693.56039,125.8917 693.367217,120.271879 690.876587,114.864721 C688.385957,109.457564 684.285582,105.737586 678.575337,103.704677 C672.865093,101.671767 667.29637,102.021767 661.869003,104.754686 C656.441636,107.487605 652.710555,111.674185 650.675651,117.314553 C648.640746,122.954921 648.877742,128.55418 651.386647,134.112498 C653.895551,139.670817 657.940542,143.443403 663.521742,145.430371 C669.102941,147.417339 674.610498,147.135972 680.044578,144.586262 C685.478658,142.036552 689.282466,137.749292 691.456114,131.724353 Z M810.971105,190.828448 L804.515403,189.997293 C804.863737,182.115258 801.837039,175.54116 795.435217,170.274804 C790.397718,166.130786 784.843956,164.262935 778.773764,164.671196 C772.703571,165.079456 767.701037,167.661463 763.766011,172.417295 C759.830984,177.173127 758.137297,182.630811 758.684896,188.790512 C759.232496,194.950214 762.077476,200.145162 767.219923,204.375514 C773.359375,209.426036 780.407523,211.139851 788.36458,209.51701 L790.279889,215.835635 C785.672893,217.14015 780.928218,217.145586 776.045723,215.851942 C771.163228,214.558297 766.675564,212.228003 762.582596,208.860988 C756.128301,203.551465 752.48796,196.999562 751.661465,189.205084 C750.834971,181.410606 752.951351,174.456151 758.010671,168.34151 C763.06999,162.226869 769.595695,158.789883 777.58798,158.030448 C785.580266,157.271013 793.01334,159.718688 799.887427,165.373546 C803.927921,168.697393 806.953151,172.635294 808.963207,177.187365 C810.973263,181.739436 811.642556,186.286418 810.971105,190.828448 Z M866.478321,228.583353 L827.106566,265.970903 L822.417137,260.989057 L829.164462,254.581774 C819.530291,255.18729 811.983637,252.590191 806.524274,246.790401 C801.064911,240.990611 798.520907,234.135845 798.892184,226.225898 C799.263461,218.315951 802.303706,211.650291 808.013009,206.228717 C813.722313,200.807143 820.505679,198.167739 828.363312,198.310426 C836.220945,198.453112 842.786022,201.325166 848.05874,206.926673 C854.124698,213.370885 856.303992,221.205664 854.596688,230.431248 L861.788892,223.601507 L866.478321,228.583353 Z M841.701097,242.230558 C846.214388,237.934795 848.594151,232.792565 848.840458,226.803714 C849.086764,220.814862 847.140003,215.616383 843.000116,211.208119 C838.860229,206.799855 833.764131,204.598923 827.711669,204.605258 C821.659206,204.611593 816.450803,206.691802 812.086301,210.845946 C807.7218,215.000091 805.390224,220.143624 805.091503,226.276698 C804.792782,232.409773 806.666558,237.630553 810.712888,241.939195 C814.759218,246.247837 819.769933,248.48287 825.745182,248.644362 C831.720431,248.805853 837.039017,246.66794 841.701097,242.230558 Z M832.459752,274.278779 L893.430301,230.036001 L897.495205,235.56125 L872.974441,253.354541 C882.292189,253.929722 889.499116,257.680862 894.595439,264.608074 C899.206398,270.875551 900.841499,277.847657 899.500877,285.524616 C898.160082,293.201544 894.286607,299.364283 887.880249,304.013004 C881.473891,308.661725 874.340786,310.422575 866.480719,309.295608 C858.620651,308.16864 852.405455,304.498961 847.834943,298.286462 C842.73862,291.35925 841.674655,283.234846 844.643017,273.913006 L836.524656,279.804028 L832.459752,274.278779 Z M856.412794,266.853675 C852.042247,271.460189 849.845448,276.799478 849.821964,282.871702 C849.799214,288.943927 851.94043,294.073317 856.246041,298.260026 C860.551652,302.446735 865.73624,304.393226 871.799958,304.099559 C877.863677,303.805891 882.951497,301.492049 887.06357,297.157964 C891.175644,292.823878 893.291169,287.619823 893.410208,281.545643 C893.529247,275.471462 891.387066,270.293518 886.9836,266.011657 C882.580134,261.729795 877.465072,259.660453 871.638262,259.803567 C865.811451,259.946681 860.736346,262.296694 856.412794,266.853675 Z M913.121827,309.532777 C920.779548,311.586511 926.536973,316.047988 930.394273,322.917342 C934.251572,329.786696 935.039771,336.98213 932.758891,344.503859 C930.478012,352.025588 925.865118,357.696871 918.920072,361.51788 C911.975025,365.338888 904.705416,366.244014 897.111027,364.233285 C889.516637,362.222556 883.765831,357.737975 879.858437,350.779409 C875.951042,343.820843 875.131178,336.603907 877.39882,329.128385 C879.666462,321.652864 884.242802,316.021153 891.127978,312.233084 C898.132895,308.379136 905.464105,307.479043 913.121827,309.532777 Z M911.948165,316.580875 C906.068707,315.080917 900.472359,315.798176 895.158952,318.732675 C889.845545,321.667173 886.319264,325.910356 884.580004,331.462351 C882.840743,337.014346 883.426136,342.391341 886.336199,347.593495 C889.246262,352.795649 893.572942,356.164763 899.316368,357.700938 C905.059794,359.237113 910.588127,358.537962 915.901534,355.603464 C921.15524,352.701938 924.684724,348.359711 926.490093,342.576653 C928.295462,336.793595 927.793009,331.390249 924.98272,326.366455 C922.17243,321.34266 917.827622,318.080833 911.948165,316.580875 Z" id="holacabo" stroke="#FFFFFF" fill="#000000" fill-rule="nonzero" transform="translate(700.706691, 210.188703) rotate(-345.000000) translate(-700.706691, -210.188703) "></path>
            <circle id="DOT" fill="#000000" transform="translate(743.477892, 161.975423) rotate(10.000000) translate(-743.477892, -161.975423) " cx="743.477892" cy="161.975423" r="8.1274981"></circle>
            <path d="M713.789884,447.240537 C719.072681,447.240537 723.364903,451.557147 723.364903,456.858047 L723.359586,527.663155 C725.31388,525.945987 731.736398,516.708335 728.344092,470.695354 L728.317453,470.304869 L728.503844,469.957177 C728.754146,469.486531 731.038769,465.351689 734.702644,465.228666 C737.035255,465.185805 739.202633,466.715646 741.14643,469.876933 L741.316843,470.149735 L741.349426,470.469671 C741.364695,470.637417 741.402877,471.069234 741.452802,471.729403 L741.49821,472.350353 C742.222619,482.590985 744.392276,529.698504 723.466987,535.198962 L723.365802,534.808477 L723.365802,565.458692 L704.215492,565.458692 L704.215492,540.885663 C682.631005,536.702291 683.834583,507.50222 684.649374,488.047829 C684.819787,483.929091 684.979553,480.045744 684.904994,476.980723 L684.894346,476.590238 L685.091384,476.253254 L685.12431,476.198395 C685.450374,475.664467 687.947982,471.792106 691.833324,471.583489 C694.437505,471.433681 696.972429,472.974203 699.310221,476.13015 L699.581818,476.493877 L699.587135,518.511088 C699.587135,518.56997 699.83212,525.983781 704.214865,530.29505 L704.214865,456.858047 C704.214865,451.557147 708.512403,447.240537 713.789884,447.240537 Z" id="Fill-1" fill="#7AB3AD"></path>
            <path d="M496.933804,391.086914 C504.749277,391.086914 511.739656,394.509101 517.515986,399.69119 C523.292316,404.87328 528.195983,411.668718 532.662697,419.638092 C541.595006,435.575088 549.022338,456.157768 557.130078,476.347467 C565.237819,496.537166 573.878702,516.337639 584.315367,530.711473 C594.752032,545.085307 606.305935,553.787203 621.210309,553.787203 L800.639428,553.787203 C803.940437,553.787203 806.950268,556.720541 806.950268,560.044858 C806.950268,563.369175 803.940437,566.351448 800.639428,566.303107 L621.210309,566.303107 C462.241223,566.303107 427.527766,565.032583 363.532578,565.135444 L363.63219,565.458692 C357.494256,546.248242 349.12047,536.643016 338.510832,536.643016 C327.90397,536.643016 319.777949,546.243215 314.13277,565.443612 C295.732391,565.628806 274.335867,565.906338 248.383492,566.303107 L74.3976436,566.303107 C71.0966349,566.303107 68.086804,563.369175 68.086804,560.044858 C68.086804,556.720541 71.0966349,553.738268 74.3976436,553.787203 L248.383492,553.787203 C263.189687,553.787203 272.801163,548.458434 280.618098,540.097956 C288.435034,531.737478 293.822381,519.858196 298.482717,507.635743 C303.143052,495.413291 307.172315,482.94679 312.075982,472.828162 C314.503209,467.743817 317.221738,463.09951 321.008291,459.530644 C324.794845,455.961778 329.79495,453.664093 335.377037,453.664093 C345.377371,453.664093 353.096253,459.33503 357.901991,466.179403 C362.707728,473.023776 365.620624,481.138954 368.776106,488.863403 C371.931588,496.587853 375.329656,503.578906 379.650222,508.418576 C383.970787,513.258247 388.873833,516.240645 397.51484,516.240645 C404.602402,516.240645 411.156573,510.423028 418.097366,499.422571 C425.038158,488.422114 431.447051,473.268075 438.292152,457.573876 C445.137252,441.879676 452.22469,425.895122 461.206088,413.379811 C470.084251,401.008355 481.80764,391.312048 496.424268,391.090779 L496.933804,391.086914 Z" id="Path-2" fill="#000000"></path>
        </g>
    </g>
</svg>