<?xml version="1.0" encoding="UTF-8"?>
<svg width="512pt" height="512pt" version="1.1" viewBox="0 0 512 512" xmlns="http://www.w3.org/2000/svg">
 <g fill="#fff">
  <path d="m255.77 511.41c-17.375 0-34.762 0.41016-52.129-0.12891-13.555-0.42188-24.922-6.3125-30.391-19.156-5.8828-13.805-10.523-28.156-15.207-42.438-8.7109-26.516-13.371-53.918-17.227-81.496-5.1211-36.684-6.4922-73.52-4.5508-110.42 2.1172-39.965 7.6406-79.488 20.16-117.69 11.355-34.656 27.758-66.773 50.703-95.234 11.645-14.453 23.883-28.492 38.766-39.867 0.21484-0.16016 0.39844-0.36719 0.61328-0.51953 8.3086-6.043 12.531-5.9883 20.496 0.51953 16.016 13.09 30.34 27.824 42.812 44.336 27.145 35.918 45.816 75.852 55.184 119.83 4.0156 18.867 6.4961 38.109 8.7109 57.297 3.6797 31.926 3.2812 64 1.7695 96.043-0.76562 16.266-1.0898 32.625-3.3125 48.707-2.6875 19.492-6.7148 38.844-11.008 58.074-4.0156 18.012-9.0234 35.82-13.781 53.66-5.3438 20.02-22.082 28.676-40.699 28.945-16.965 0.23828-33.941 0.054687-50.918 0.054687v-0.51953zm-0.25781-18.82c0.625 0.085937 1.25 0.16016 1.8672 0.25 0.25781-1.3828 0.73438-2.7539 0.73438-4.1328-0.023437-13.738 0-27.488-0.29297-41.227-0.074218-3.668 1.5664-4.6094 4.6641-4.8555 8.7539-0.70312 15.758 2.7852 21.531 9.0352 3.7461 4.0469 7.2188 8.3438 10.867 12.488 7.3594 8.375 16.414 13.805 27.543 15.477 7.2969 1.1016 14.375-2.2344 15.758-7.4023 3.043-11.398 6.5078-22.719 8.8398-34.266 3.7344-18.52 7.0469-37.148 9.8438-55.828 2.1602-14.484 3.9492-29.086 4.6406-43.699 1.0469-21.781 1.1562-43.625 1.3477-65.434 0.21484-24.512-0.63672-48.965-5.2031-73.172-5.3438-28.332-13.641-55.777-24.867-82.281-9.4102-22.199-21.066-43.246-34.848-63.082-10.555-15.195-22.156-29.473-35.973-41.832-5.7539-5.1367-7.168-5.3945-12.863-0.20312-6.5312 5.957-12.586 12.477-18.574 18.996-15.219 16.547-27.25 35.301-37.656 55.148-11.816 22.547-21.012 46.172-28.406 70.477-6.8438 22.504-11.645 45.5-13.891 68.934-1.6719 17.547-3.3242 35.129-3.8516 52.734-0.75391 25.309-0.35547 50.629 3.1523 75.797 1.5977 11.441 2.418 23.031 4.6406 34.344 3.3906 17.191 7.3516 34.289 11.766 51.242 2.7305 10.469 6.207 20.828 10.359 30.824 3.3789 8.125 10.426 10.91 18.973 9.1289 11.957-2.4922 20.312-9.8633 26.797-19.836 2.707-4.1641 5.5469-8.2773 8.7422-12.078 4.3164-5.125 10.219-6.7461 16.75-6.207 3.3438 0.28125 5.4727 1.8672 5.5469 5.6133 0.16016 8.082 0.37891 16.156 0.74609 24.23 0.3125 6.9492 0.875 13.891 1.3281 20.828z"/>
  <path d="m257.58 401.71c-0.26953-76.949-0.84375-153.16 1.4258-229.39 19.816 7.5234 43.074 31.02 44.66 64.562 0.36719-6.9062 0.73438-13.805 1.0898-20.711 0.17188-0.074219 0.35547-0.16016 0.52734-0.23828 1.9648 6.3672 3.9375 12.734 5.9258 19.18 2.7539-10.75 5.5273-21.586 8.3086-32.422 0.30078-0.085938 0.60547-0.16016 0.89453-0.25 0.69141 5.375 1.3906 10.75 2.082 16.125 0.21484 0.03125 0.43359 0.066406 0.64844 0.097656 0.12891-3.9922 0.61328-8.0195 0.3125-11.98-1.1445-15.141-8.5586-27.434-17.863-38.918-11.398-14.051-26.152-22.977-42.953-28.926-1.2734-0.45313-2.4805-1.0703-3.5391-1.9531 22.902 1.75 40.719 12.551 53.898 30.91 13.039 18.164 18.281 38.648 16.211 61.582 5.0625-11.344 4.9336-46.484-10.945-67.605-14.852-19.762-34.297-31.438-59.898-34.516l0.003907-112.11c2.0391 1.543 4.1016 2.8281 5.8281 4.4688 12.066 11.461 22.094 24.629 31.504 38.281 11.699 16.977 21.508 35.023 30.25 53.66 12.359 26.344 21.195 53.887 26.324 82.465 2.7617 15.434 4.5742 31.191 5.0742 46.863 0.99219 31.363 1.2734 62.781 0.86328 94.156-0.20313 15.133-2.5039 30.25-4.1328 45.352-1.4258 13.199-2.9805 26.43-7.7695 38.961-0.75391 1.9844-1.8984 4.4883-3.5742 5.3438-7.5 3.832-15 8.0391-23.012 10.445-10.879 3.2578-22.168-2.3438-29.367-12.93-1.1328-1.6719-2.2031-3.3906-3.3555-5.0391-6.8633-9.832-14.949-17.516-29.41-15.453z"/>
  <path d="m200.84 179.87c15.777-11.008 31.797-14.914 49.527-10.445 1.8984 0.47656 2.9375 1.2188 2.9375 3.5078-0.097656 75.32-0.11719 150.65-0.16016 225.98 0 0.38672-0.12891 0.77734-0.28125 1.5664-15.41 0.86328-25.48 10.566-34.656 21.648-6.5312 7.8906-14.312 13.48-25.07 13.414-12.801-0.085937-27.242-11.246-30.23-24.586-3.2695-14.633-6.2148-29.441-7.8555-44.336-2.1914-19.914-3.8203-39.953-4.1992-59.973-0.66797-35.324 1.8906-70.562 8.0742-105.35 6.9609-39.168 18.734-76.973 36.934-112.48 13.836-27.004 31.559-51.309 53.316-72.582 0.76562-0.75391 1.5664-1.4688 2.4062-2.1367 0.28125-0.21484 0.73437-0.21484 1.6602-0.45312 2.5781 37.668-1.6406 75.117 0.011718 111.64-10.254 1.5312-20.141 2.0703-29.484 4.5859-28.191 7.5859-47.887 24.758-56.629 53.262-3.625 11.809-3.2695 23.918-2.4492 36.035 0.32422 4.8242 0.86328 9.6367 1.707 14.461 0.25781-2.8906 0.26953-5.8398 0.82031-8.6758 3-15.262 12.312-25.645 25.762-32.668 11.062-5.7734 22.191-11.406 34.289-17.602-9.0977 1.7812-17.227 3.3672-26.43 5.168z"/>
  <path d="m344.14 434.16c-1.4805 6.8438-2.9375 14.16-4.6836 21.414-0.9375 3.9062-2.3633 7.6953-3.5938 11.516-0.92969 2.8828-3.0977 3.9609-5.9258 4.7578-15.078 4.2539-26.648-0.32422-35.184-13.285-1.9844-3.0312-4.2539-5.8828-6.4531-8.7617-5.3945-7.0352-12.348-12-20.766-14.699-2.7422-0.88672-5.7969-0.82031-9.3477-1.2734v-23.637c12.098-0.57031 21.273 3.8867 28.828 13.211 4.4805 5.5352 10.242 10.176 15.961 14.516 6.1641 4.6641 13.523 5.1914 20.828 3.0859 6.7461-1.9414 13.328-4.4688 20.324-6.8633z"/>
  <path d="m166.54 431.13c7.4023 6.043 14.406 10.535 22.922 12.41 8.8828 1.9648 16.137-0.82031 22.395-6.832 6.3984-6.1523 12.574-12.539 18.898-18.758 5.3203-5.2344 11.816-7.7383 19.242-8.0195 1.8555-0.066406 3.1719 0.19531 3.1719 2.4727-0.03125 7.5-0.011719 14.992-0.011719 22.871-10.004-0.28125-18.617 2.8594-25.277 9.9414-3.918 4.1758-6.9414 9.1953-10.371 13.824-5.6992 7.6719-13.781 11.883-22.418 15.141-6.5391 2.4727-13.273 0.28125-16.059-6.1406-4.0703-9.4219-7.1328-19.285-10.535-29-0.77734-2.2344-1.1641-4.6094-1.9844-7.9102z"/>
 </g>
</svg>
