<?xml version="1.0" encoding="UTF-8"?>
<svg width="512pt" height="512pt" version="1.1" viewBox="0 0 512 512" xmlns="http://www.w3.org/2000/svg">
 <g fill="#fff">
  <path d="m456.98 335.54c-59.355 17.227-119.77-4.8047-180.06 0.29297-18.281 0.64453-37.676 0.64453-54.434-7.793-22.031-10.664-7.5586-48.398 14.941-43.711-19.746 3.75-35.684 30.762-11.133 42.832 44.18 13.125 91.758 0.46875 136.94 9.7852 36.387 5.5664 73.535 3.2812 108.46-8.6719-52.207 55.781-148.66 46.172-221.96 41.895-42.656-0.41016-123.52-40.02-85.312-89.766 10.137-15.41 58.887-12.246 20.918-8.3203-53.73 13.828-19.102 77.52 20.273 85.312-49.746-43.301-8.8477-110.21 52.969-76.875 1.875 5.8594-21.387-7.3242-27.129-5.332-41.719-7.9688-58.77 41.602-33.398 70.195 26.953 40.43 236.61 32.871 258.87-9.9023z"/>
  <path d="m32.344 318.79c-2.4023 17.578 21.445 70.312 9.5508 76.523 2.0508-22.148-8.6719-43.828-11.074-65.801-10.371-60.703 59.707-94.043 109.39-104.06 60.762-9.0234 110.33 37.793 164.24 57.656 21.738 7.9688 44.062 16.289 66.504 20.977-45.293 1.2891-92.637-21.973-137.52-33.398-30.703-5.918-55.723-27.715-87.422-30.703-49.043-8.0273-113.73 25.312-113.61 78.867zm301.23-22.207c-75.762-21.152-148.3-98.906-230.45-57.363 31.992-7.5 65.508-0.23438 94.16 15.352 43.008 16.758 90.996 33.164 136.35 42.012z"/>
  <path d="m419.36 308.53c-56.133-10.137-113.61-32.051-161.84-59.59 57.715 21.27 120.82 61.699 186.33 56.191 23.789-3.1055 45.527-19.102 68.145-22.324-23.906 13.652-52.734 22.324-80.391 27.07-56.836 7.7344-114.61 1.3477-171.39 11.367-33.984 7.7344-36.035-36.27-2.5781-31.875 2.4023 0.41016 0.76172 3.0469-0.87891 2.6367-19.629-6.0938-31.582 26.484-6.3867 26.426 56.016-7.0312 113.44-5.0391 168.99-10.02z"/>
  <path d="m11.133 374.57c-52.91-96.152 95.449-163.71 174.91-160.55 14.297 2.4023-5.2148 3.457-10.664 2.5781-78.926 2.6953-205.67 63.223-164.24 157.97z"/>
  <path d="m212.99 100.99c15.117 2.3438 32.168 10.02 42.715 20.742-14.531-2.9883-32.988-24.902-47.871-15.645-0.46875 3.2227 2.8125 5.8008 5.7422 5.7422 61.465 14.766 17.227 32.051 5.2734 62.402-1.6992 6.0938-16.406 52.031-19.512 42.949 9.7852-18.164 13.066-39.434 23.145-56.953 5.3906-9.9609 27.246-21.094 17.695-33.223-7.3828-7.3242-16.406-13.008-27.129-12.48-9.9609 0.11719-10.898-14.824 0-13.535z"/>
  <path d="m153.11 258.08c-28.301-0.17578-71.25 9.1406-76.699 41.895-2.4023 25.43 6.6797 56.191 32.461 66.152 25.723 9.1992-17.285 2.8711-24.609-17.637-56.602-107.93 111.62-94.219 68.848-90.41z"/>
  <path d="m314.36 223.39c-36.094-5.332-75.293 0.76172-109.92-0.76172 23.496-4.9805 50.215-3.6914 74.766-4.3945 29.297 1.2891 63.164 2.168 11.895 16.582-15.352 2.8711-34.277 11.25-48.691 8.4961 22.559-6.6797 50.625-8.1445 71.953-19.863z"/>
  <path d="m262.62 212.9c-14.062-63.984 3.5156-34.219 0.52734 3.6914-12.48-9.7852-7.6172-30.703-12.891-44.707-12.012-38.672-28.477 10.664-34.395 26.367-7.207 20.449-16.758 26.426-3.2812 0.9375 7.0312-24.141 30.527-74.297 41.719-21.68 2.8125 11.543 1.2305 25.488 8.3203 35.391z"/>
  <path d="m250.84 131.28c-0.11719-15.938 37.148 5.7422 39.316 16.289 2.9297 8.7305 22.559 58.711 1.1133 48.047-5.0977-14.004-2.8125-30.996-13.008-43.418-8.3203-9.8438-18.691 8.9648-25.371 13.828-3.9844-4.1016 19.043-24.375 23.906-18.516 14.531 10.898 11.074 32.109 16.934 47.109 11.309 2.1094-0.11719-22.793-0.17578-29.707-2.3438-18.047-24.492-43.477-42.715-33.633z"/>
  <path d="m113.96 323.3c-1.4062-39.023 30-72.305 69.258-64.453-7.9102 5.8008-23.145-1.1133-32.988 5.9766-40.137 17.988-38.672 68.965-22.266 101.78-10.605-8.7305-12.598-29.883-14.004-43.301z"/>
  <path d="m21.387 339.88c-3.0469 1.9336-14.883 7.6758-8.3789 0.76172 2.9883-0.46875 11.66-7.5 11.25-1.2305-6.1523 49.336-4.9805 51.973 34.746 71.66-39.434-3.8086-44.648-38.672-37.676-71.25z"/>
  <path d="m277.09 129.46c-15-0.17578-14.121-26.367 0.35156-26.25 18.516-0.17578 17.344 26.191-0.35156 26.25zm-8.4375-12.949c-0.41016 17.637 27.363 8.6133 18.047-6.1523-5.332-8.4961-18.457-4.043-18.047 6.1523z"/>
  <path d="m11.66 318.67c14.707 5.4492 18.516 12.656 0.41016 3.3984-0.58594-0.46875-1.6406-2.8125-0.41016-3.3984z"/>
 </g>
</svg>
