<?xml version="1.0" encoding="UTF-8"?>
<svg width="512pt" height="512pt" version="1.1" viewBox="0 0 512 512" xmlns="http://www.w3.org/2000/svg">
 <g>
  <path d="m486.87 14.344-180.63-1.2344c-3.6992 0-6.7812 1.8477-9.25 3.6953l-280.49 282.96c-4.9297 4.9336-4.9297 12.949 0 17.883l178.16 177.54c4.9297 4.9336 12.945 4.9336 17.879 0l0.61719-0.61328 281.73-279.88c2.4648-3.0859 3.6992-6.1641 3.6992-9.8633l0.61328-178.16c0-6.7812-5.5469-12.328-12.328-12.328zm-13.562 186.17-270.02 268.17-159.67-160.28 267.55-270.02 162.75 1.2344z"/>
  <path d="m396.86 165.38c12.328 0 24.66-4.9336 34.523-14.176 9.2461-9.8633 14.18-22.191 14.18-34.523 0-12.328-4.9336-24.664-14.18-34.523-9.8633-9.25-22.191-14.184-34.523-14.184-12.328 0-24.66 4.9336-34.523 14.184-9.2461 9.8594-14.18 22.195-14.18 34.523 0 12.328 4.9297 24.656 14.18 34.523 9.8672 9.2422 22.195 14.176 34.523 14.176zm-16.645-65.348c4.9336-4.3164 10.48-6.7812 16.645-6.7812 6.1641 0 11.715 2.4648 16.645 6.7812 4.3164 4.9336 6.7812 10.48 6.7812 16.645 0 6.1641-2.4648 11.711-6.7812 16.645-4.9297 4.3125-10.48 6.7812-16.645 6.7812-6.1641 0-11.711-2.4688-16.645-6.7812-4.3164-4.9336-6.7812-10.48-6.7812-16.645 0-6.1602 2.4688-11.711 6.7812-16.645z"/>
 </g>
</svg>
