<?xml version="1.0" encoding="UTF-8"?>
<svg width="512pt" height="512pt" version="1.1" viewBox="0 0 512 512" xmlns="http://www.w3.org/2000/svg">
 <path d="m0 383.39c54.68-36.199 51.398-81.273 61.316-141.92l-0.011718 0.93359c5.6445-26.363 13.473-41.316 27.012-64.32l-0.51953 1.1641c9.3711-13.426 30.793-38.262 49.133-37.574-98.707 40.312-40.949 213.75-136.93 241.71zm353.04-174.44c-3.0117-25.203-2.1016-20.578-18.535-39.637-38.078-28.086-80.852-29.633-118.48 0.47656-57.805 46.254-52.273 196.04 63.82 170.89 17.277-3.7422 28.043-2.7148 43.824-1.3633 31.84-8.8242 66.449-17.176 116.29-11.891-91.82-0.72266-84.891 15.195-161.59 29.539-122.03 22.82-185.92-35.668-135.22-155.07 17.293-40.723 48.125-65.262 82.172-76.68-98.191-2.2695-156.11 107.94-123.08 192.2 61.473 156.82 273.14-26.559 409.75 59.434-131.38-58.199-250.46 37.914-341.86 13.629l1.4062 0.28125c-102.47-23.816-99.812-103.28-82.664-158.07 33.035-105.56 121.65-119.26 148.63-110.97 61.824-14.902 130.01 10.863 146.05 60.207 55.414 24.441 48.828 108.25-18.836 110.77-8.9297 0.33203-18.254-0.86719-26.906 0.70312 0.50781-0.49219 0.27344-0.078125 0.55859-0.67969-1.3164 2.1367-6.0586 0.11719-6.1758 4.9531-3.6797-1.7422 0.81641-5.8945 4.2852-7.043 8.0234-6.0586 51.621 1.75 66.066-22.801 20.094-34.156 6.9531-62.141-18.367-83.859 4.3086 14.754 4.0195 31.531-2.3984 49.91-26.477 75.816-120.77 69.977-96.324-10.27 8.6055-28.262 37.594-30.797 54.895-22.512-26.633-57.059-147.96 0.92188-89.5 97.562 27.719 45.84 134.99 7.9805 173.04 22.227-27.621 0.11719-23.016-2.707-62.191 4.6719 0.25781-0.039063 0.51562-0.078126 0.77344-0.12109-16.453 4.5586-49.961 7.5547-76.797 2.6094-63.574-11.703-73.211-100.35-44.477-132.55 31.957-35.812 100.12-22.41 101.33 6.7188 10.824 6.1289 15.832 16.781 5.5156 27.555-4.5078 4.707-9.3047 4.7578-15.242 4.7852 54.227-11.039-26.379-67.547-42.785-9.5742-20.934 73.973 62.195 73.863 84.73 6.4531 36.699-109.79-166.45-155-222.81-26.246-31.332 71.578-30.543 133.57 59.285 147.31 43.113 6.5977 74.027-2.4336 107.26-11.734-12.758 0.625-23.723 0.79297-37.387 4.4219-145.15 38.547-139.09-203.24-20.297-201.84l-0.73047 0.011719c45.945-5.2383 95.836 12.809 92.98 65.582z" fill="#000" fill-rule="evenodd"/>
</svg>
