<?xml version="1.0" encoding="UTF-8"?>
<svg width="512pt" height="512pt" version="1.1" viewBox="0 0 512 512" xmlns="http://www.w3.org/2000/svg">
 <path d="m69.457 368.48c67.992-11.074 105.86-20.695 167.73-40.625-11.844-3.5273-23.012-10.137-31.879-18.992-12.777-0.089844-28.078-1.293-41.32-5.2734-7.9844 16.527-20.512 28.227-35.215 36.613 17.301-6.4805 36.992-15.793 63.844-29.988 0.89844-0.47266 0.86328-0.55078 1.6133-0.13281l0.003907 0.019531c-0.79688 0.80078-0.14062 0.32422-0.84375 1.0977-46.605 51.137-129.77 55.832-193.38 52.367 32.457-4.293 55.262-6.5938 74.715-9.6172 44.262-16.871 40.656-19.297 85.637-48.707l3.3945-1.7227c-22.273-6.7617-38.637-21.41-27.164-51.852 1.7422-4.6211 3.7891-7.0977 7.5938-9.625-17.574-34.922-14.008-83.785 53.238-85.211 2.207-0.046875 13.445 1.9375 18.84 4.7891 1.0703-0.79688 2.2969-1.6367 3.8086-2.6484 38.477-39.828 118.24-20.008 151.69 30.129 6.8477 10.262 23.457 51.066 21.387 72.445 8.1406-2.1367 18.199-1.4727 30.027 3.6094 23.691 10.18 21.195 37.895 13.832 57.84l0.72266-1.8828c-4.0898 13.742-10.809 23.047-19.465 30.785 5.8711 0.30859 14.664 2.4648 29.926 7.5508 27.898 9.3008 36.461 0.89844 63.805-6.3516l0.007812 0.027344c-24.254 13.637-38.938 19.926-65.98 12.34-52.254-14.652-33.891 7.2578-60.879 8.7344-29.055 1.5898 77.602-52.047 42.453-95.488-29.598-36.582-83.23 24.766-33.465 39.645 6.4844-6.625 11.75-13.711 15.223-21.18 4.4648 37.082-64.496 70.422-105.72 71.914 27.102-8.5156 65.703-26.113 89.324-49.555-10.969-0.13672-18.094-5.3594-21.66-12.656-19.613 48.539-73.945 66.035-121.75 65.285 66.305-15.27 74.004-22.324 120.52-68.312-4.9727-14.77 2.6758-35.52 20.926-41.668-0.070313-1.6914-0.29688-3.5039-0.63281-5.6992-21.969-142.81-175.61-131.38-187.2-47.992-14.93 107.41 158.76 105.1 121.95 27.055l-0.57812-0.3125c-5.3008-1.5039-1.125-3.2031-18.262-6.25 10.73 5.5312 5.3008 39.762-28.668 31.215-42.652-10.734 18.254-89.344 62.219-44.82 68.18 69.035-50.168 130.63-100.41 145.01-47.293 8.6914-23.598 5.5977-71.598 9.3242 49.332-9.7734 219.29-47.039 173.09-135.68-26.27-50.406-95.422-3.375-62.461 20.727 28.363 9.7578 38.398-20.996 23.359-26.418 1.6719-0.26562 3.1445-0.015625 4.4023 0.61328 27.141-0.70312 31.469 14.406 24.398 42-3.1562 12.914-11.539 21.367-22.715 25.957-14.359 30.176-42.074 38.113-67.453 31.824-45.719 34.223-116.48 41.723-170.97 39.742zm74.867-126.14c-12.77 49.332 16.566 54.586 59.789 65.305-8.1719-8.5547-14.215-19.082-16.75-30.871-15.926 0.79297-32.918-14.508-43.039-34.438zm42.613 32.254c-2.043-11.629-0.68359-24.414 5.3633-37.715-4.8281-19.02-1.3242-41.402 15.641-65.984 2.6211-3.8008 4.2617-5.8477 6.3242-7.6719-64.812-21.098-104.54 78.504-27.328 111.37zm8.2266-28.996c-7.4805 66.695 59.586 103.65 107.7 53.082-34.949 10.195-90.988-12.168-107.7-53.082zm135.43 25.359-0.027344 0.097656 0.12109-0.44922c-0.027344 0.12109-0.070312 0.23047-0.097656 0.35156zm-91.195 89.43-0.30078 0.089844 0.76172-0.17188z" fill="#fff" fill-rule="evenodd"/>
</svg>
