<?xml version="1.0" encoding="UTF-8"?>
<svg width="512pt" height="512pt" version="1.1" viewBox="0 0 512 512" xmlns="http://www.w3.org/2000/svg">
 <path d="m133.98 177.96-0.89844-0.42578c0.28516 0.11719 0.58203 0.26172 0.89844 0.42578zm-133.98 179.48c47.613-30.301 146.06-92.77 104.67-160.12-51.066-83.102-86.734 55.645-34.629 34.453 14.738-5.9922 26.973-29.566 11.902-38.223 4.9141-2.8281 9.5039 5.3164 10.359 9.5 11.23 55.047-81.211 47.328-57.227-16.422 28.172-74.875 138.6 16.191 72.105 97.941-40.844 36.953-56.195 53.871-107.18 72.867zm133.08-179.91c0.30859 0.13672 0.59766 0.28516 0.89844 0.42578 1.4688 0.67578 2.9023 1.3789 4.3008 2.1133 6.4219 3.3438 12.145 7.2383 17.316 11.555 51.934 43.332 48.777 128.34 147.73 110.78l15.828-1.6445c-9.1055 5.6211-16.789 11.055-26.648 14.441-89.094 30.652-115-86.852-159.42-137.67zm-51.754-20.332c62.984-15.938 146.39 28.988 183.79 82.973 58.246 84.074 56.324-7.6875 79.41 33.961 29.125 52.547 82.363 24.695 85.469 29.348 24.719 37.062 39.781 36.895 82 43.488-39.93 1.3711-63.645-5.1914-86.316-38.121-46.543 14.895-66.164 1.6602-92.027-35.133-15.719 9.0195-26.086 14.242-35.609 12.957-6.8906-0.92969-13.336-5.2695-21.043-14.043-5.7773-6.5781-12.262-15.645-20.172-27.645-37.02-56.152-109.05-91.73-175.5-87.789zm117.06 200.86 2.0117-11.887 2.418-9.2539c71.047 1.4141 59.438 9.2109 122.84-2.1016l6.4297-0.78516c-7.3359 5.0312-3.4258 2.8203-11.77 6.5469l0.41016-0.09375c-42.695 17.855-66.223 10.566-113-0.82031-4.8789 11.613-1.9023 5.4062-9.3398 18.398zm-25.875-1.8477c23.984-41.926 7.8398-71.207 28.359-48.547 21.621 23.879 81.953 28.918 116.48 6.1094 33.051-21.84 12.711 0.62891 92.867 22.918l4.4336 1.6523c-44.086 1.8242-55.098-16.855-81.52-25.832l-10.668 8.457c-41.254 29.836-109.91 17.707-128.55-11.676-5.1289 13.441-10.027 40.188-21.398 46.922zm159.32-44.133-0.050781-0.015625-0.003906 0.007813zm-175.34 39.816c6.8164-27.078 12.309-54.773 19.715-81.328 7.2812 38.57 0.011718 48.609-19.715 81.328zm-26.492-0.61328c18.094-41.98 23.184-56.289 36.969-98.578 10.473 37.738-14.938 72.035-36.969 98.578zm-38.199 4.3125c8.9609-12.477 22.824-31.496 32.523-43.965 10.633-22.699 37.828-74.254 26.625-100.82 1.25-0.58594 2.3828 0.85938 2.9531 1.8281 22.652 38.926-22.785 117.61-62.102 142.96zm-24.027-1.8477c38.039-58.801 89.016-102.1 49.906-174.36l1.6406 0.43359 1.6641 1.3477c58.648 55.199-16.867 135.67-53.211 172.59zm39.41-69.172c-0.28516 0.34766-0.54297 0.69531-0.82812 1.0391l1.3438-1.5078-0.51562 0.46484z" fill="#000" fill-rule="evenodd"/>
</svg>
